<svg xmlns="http://www.w3.org/2000/svg" version="1.1" xmlns:xlink="http://www.w3.org/1999/xlink" xmlns:svgjs="http://svgjs.dev/svgjs" width="2000" height="444" viewBox="0 0 2000 444"><g transform="matrix(1,0,0,1,-1.2121212121213603,0.7728356473317035)"><svg viewBox="0 0 396 88" data-background-color="#ffffff" preserveAspectRatio="xMidYMid meet" height="444" width="2000" xmlns="http://www.w3.org/2000/svg" xmlns:xlink="http://www.w3.org/1999/xlink"><g id="tight-bounds" transform="matrix(1,0,0,1,0.24000000000003752,-0.15317463280447896)"><svg viewBox="0 0 395.5199999999999 88.30623276269709" height="88.30623276269709" width="395.5199999999999"><g><svg viewBox="0 0 545.809708144859 121.86083922830626" height="88.30623276269709" width="395.5199999999999"><g transform="matrix(1,0,0,1,150.289708144859,12.826079106008414)"><svg viewBox="0 0 395.52 96.20868101628943" height="96.20868101628943" width="395.52"><g id="textblocktransform"><svg viewBox="0 0 395.52 96.20868101628943" height="96.20868101628943" width="395.52" id="textblock"><g><svg viewBox="0 0 395.52 60.211264416020136" height="60.211264416020136" width="395.52"><g transform="matrix(1,0,0,1,0,0)"><svg width="395.52" viewBox="1.75 -35.85 237.53 36.300000000000004" height="60.211264416020136" data-palette-color="#527853"><g class="wordmark-text-0" data-fill-palette-color="primary" id="text-0"><path d="M18.35 0.45L18.35 0.45Q13.4 0.45 9.68-1.78 5.95-4 3.85-7.95 1.75-11.9 1.75-17.1L1.75-17.1Q1.75-21.35 3.15-24.58 4.55-27.8 6.95-29.95 9.35-32.1 12.4-33.18 15.45-34.25 18.7-34.25L18.7-34.25Q21.65-34.25 24.38-33.58 27.1-32.9 29.75-31.65L29.75-31.65Q29.45-29.95 29.33-27.95 29.2-25.95 29.2-23.9L29.2-23.9Q28.55-23.6 27.45-23.45 26.35-23.3 25.35-23.3L25.35-23.3Q25.3-26.35 24.5-28.1 23.7-29.85 22.3-30.55 20.9-31.25 19-31.25L19-31.25Q16.45-31.25 14.65-30.18 12.85-29.1 11.75-27.3 10.65-25.5 10.13-23.2 9.6-20.9 9.6-18.4L9.6-18.4Q9.6-14.2 10.88-10.8 12.15-7.4 14.65-5.43 17.15-3.45 20.85-3.45L20.85-3.45Q22.9-3.45 25.08-4.1 27.25-4.75 29.3-5.95L29.3-5.95Q29.7-5.6 30.03-5 30.35-4.4 30.45-3.8L30.45-3.8Q28.1-1.9 25.18-0.73 22.25 0.45 18.35 0.45ZM50.35 0.45L50.35 0.45Q49.5 0.1 49.15-0.58 48.8-1.25 48.8-2.45L48.8-2.45Q48.8-3.05 48.9-3.88 49-4.7 49.25-5.45L49.25-5.45 49.4-5.6Q49.05-4.3 48.4-3.23 47.75-2.15 46.85-1.45L46.85-1.45Q45.85-0.55 44.42-0.1 43 0.35 41.05 0.35L41.05 0.35Q37.7 0.35 35.85-1.1 34-2.55 34-5.25L34-5.25Q34-7.15 34.87-8.53 35.75-9.9 37.25-10.85 38.75-11.8 40.6-12.4 42.45-13 44.37-13.35 46.3-13.7 48-13.95L48-13.95Q48-15.4 47.92-16.38 47.85-17.35 47.62-18.03 47.4-18.7 46.9-19.2L46.9-19.2Q46.35-19.9 45.62-20.18 44.9-20.45 44.1-20.45L44.1-20.45Q42.7-20.45 41.87-19.63 41.05-18.8 40.65-17.5 40.25-16.2 40.15-14.85L40.15-14.85Q38.95-14.85 37.9-14.95 36.85-15.05 36.05-15.35L36.05-15.35Q36.15-16.7 36.1-18.25 36.05-19.8 35.75-21.35L35.75-21.35Q37.85-22.3 40.57-22.85 43.3-23.4 45.7-23.4L45.7-23.4Q48.55-23.4 50.3-22.73 52.05-22.05 52.95-21.15L52.95-21.15Q54-20.05 54.57-18.18 55.15-16.3 55.15-12.8L55.15-12.8 55.15-8.45Q55.15-6.85 55.35-5.98 55.55-5.1 56.17-4.75 56.8-4.4 58.1-4.35L58.1-4.35Q58.2-3.55 58.1-2.73 58-1.9 57.65-1.2L57.65-1.2Q55.85-1.15 53.92-0.73 52-0.3 50.35 0.45ZM43.55-3.8L43.55-3.8Q44.55-3.8 45.6-4.48 46.65-5.15 47.32-6.5 48-7.85 48-9.95L48-9.95 48-11.3Q46.55-11.05 45.27-10.7 44-10.35 43.07-9.83 42.15-9.3 41.65-8.53 41.15-7.75 41.15-6.6L41.15-6.6Q41.15-5.1 41.87-4.45 42.6-3.8 43.55-3.8ZM72-11.35L72-8.65Q72-6.5 72.47-5.3 72.95-4.1 74.02-3.58 75.1-3.05 76.95-2.9L76.95-2.9Q77.2-2.3 77.25-1.5 77.3-0.7 77.3 0.15L77.3 0.15Q76.45 0.1 75.17 0.08 73.9 0.05 72.45 0.03 71 0 69.6 0L69.6 0Q67.35 0 64.95 0.03 62.55 0.05 61.15 0.15L61.15 0.15Q61.15-0.9 61.22-1.63 61.3-2.35 61.45-2.9L61.45-2.9Q62.8-3 63.55-3.4 64.3-3.8 64.57-4.88 64.85-5.95 64.85-7.9L64.85-7.9 64.85-11.35 72-11.35ZM71.05-15.1L72-14.75 72-10.45 64.85-10.45 64.85-15.9 72-20.65Q72-19.4 71.72-18.13 71.45-16.85 71.05-15.1L71.05-15.1ZM72-11.25L70.9-14.9Q71.3-16.05 71.7-17.2 72.1-18.35 72.45-18.95L72.45-18.95Q73.55-20.7 75.15-21.85 76.75-23 78.75-23L78.75-23Q80.7-23 82.3-21.8L82.3-21.8Q82.15-20.8 82.02-19.53 81.9-18.25 81.87-16.95 81.85-15.65 81.9-14.55L81.9-14.55Q81.15-14.25 79.92-14.1 78.7-13.95 77.75-13.95L77.75-13.95Q77.7-15.95 77.15-16.73 76.6-17.5 75.6-17.5L75.6-17.5Q74.85-17.5 74-16.63 73.15-15.75 72.57-14.35 72-12.95 72-11.25L72-11.25ZM72-20.65L64.85-10.45 64.85-14.8Q64.85-16.25 64.62-17.07 64.4-17.9 63.62-18.32 62.85-18.75 61.2-18.85L61.2-18.85Q61.2-19.6 61.32-20.33 61.45-21.05 61.8-21.7L61.8-21.7Q64.45-21.7 66.92-22.23 69.4-22.75 70.55-23.35L70.55-23.35Q71.25-23.1 71.62-22.48 72-21.85 72-20.65L72-20.65ZM96.94 0.45L96.94 0.45Q92.74 0.45 90.09-1.1 87.44-2.65 86.19-5.33 84.94-8 84.94-11.3L84.94-11.3Q84.94-14.85 86.34-17.55 87.74-20.25 90.37-21.8 92.99-23.35 96.49-23.35L96.49-23.35Q100.09-23.35 102.37-21.98 104.64-20.6 105.74-18.18 106.84-15.75 106.99-12.7L106.99-12.7Q106.64-11.25 105.74-10.35L105.74-10.35Q104.49-10.35 102.69-10.33 100.89-10.3 98.82-10.28 96.74-10.25 94.62-10.18 92.49-10.1 90.59-9.95L90.59-9.95 90.59-13.25 100.19-13.25Q100.19-16.6 99.22-18.43 98.24-20.25 96.39-20.25L96.39-20.25Q95.19-20.25 94.24-19.48 93.29-18.7 92.74-17.03 92.19-15.35 92.19-12.65L92.19-12.65Q92.19-10.1 92.84-7.95 93.49-5.8 95.02-4.55 96.54-3.3 99.19-3.3L99.19-3.3Q100.89-3.3 102.59-3.95 104.29-4.6 105.49-5.65L105.49-5.65Q105.94-5.4 106.34-4.65 106.74-3.9 106.74-3.15L106.74-3.15Q104.89-1.3 102.49-0.43 100.09 0.45 96.94 0.45ZM121.29-11.35L121.29-8.65Q121.29-6.5 121.77-5.3 122.24-4.1 123.32-3.58 124.39-3.05 126.24-2.9L126.24-2.9Q126.49-2.3 126.54-1.5 126.59-0.7 126.59 0.15L126.59 0.15Q125.74 0.1 124.47 0.08 123.19 0.05 121.74 0.03 120.29 0 118.89 0L118.89 0Q116.64 0 114.24 0.03 111.84 0.05 110.44 0.15L110.44 0.15Q110.44-0.9 110.52-1.63 110.59-2.35 110.74-2.9L110.74-2.9Q112.09-3 112.84-3.4 113.59-3.8 113.87-4.88 114.14-5.95 114.14-7.9L114.14-7.9 114.14-11.35 121.29-11.35ZM120.34-15.1L121.29-14.75 121.29-10.45 114.14-10.45 114.14-15.9 121.29-20.65Q121.29-19.4 121.02-18.13 120.74-16.85 120.34-15.1L120.34-15.1ZM121.29-11.25L120.19-14.9Q120.59-16.05 120.99-17.2 121.39-18.35 121.74-18.95L121.74-18.95Q122.84-20.7 124.44-21.85 126.04-23 128.04-23L128.04-23Q129.99-23 131.59-21.8L131.59-21.8Q131.44-20.8 131.31-19.53 131.19-18.25 131.17-16.95 131.14-15.65 131.19-14.55L131.19-14.55Q130.44-14.25 129.22-14.1 127.99-13.95 127.04-13.95L127.04-13.95Q126.99-15.95 126.44-16.73 125.89-17.5 124.89-17.5L124.89-17.5Q124.14-17.5 123.29-16.63 122.44-15.75 121.87-14.35 121.29-12.95 121.29-11.25L121.29-11.25ZM121.29-20.65L114.14-10.45 114.14-14.8Q114.14-16.25 113.92-17.07 113.69-17.9 112.92-18.32 112.14-18.75 110.49-18.85L110.49-18.85Q110.49-19.6 110.62-20.33 110.74-21.05 111.09-21.7L111.09-21.7Q113.74-21.7 116.22-22.23 118.69-22.75 119.84-23.35L119.84-23.35Q120.54-23.1 120.92-22.48 121.29-21.85 121.29-20.65L121.29-20.65Z" fill="#527853" data-fill-palette-color="primary"></path><path d="M163.54 0.15L163.54 0.15Q163.54-0.65 163.64-1.5 163.74-2.35 163.89-2.9L163.89-2.9Q165.24-3 165.96-3.4 166.69-3.8 166.96-4.88 167.24-5.95 167.24-7.9L167.24-7.9 167.24-25.95Q167.24-27.9 166.96-28.93 166.69-29.95 165.96-30.35 165.24-30.75 163.89-30.9L163.89-30.9Q163.69-31.45 163.61-32.3 163.54-33.15 163.54-33.95L163.54-33.95Q164.44-33.9 165.76-33.88 167.09-33.85 168.54-33.83 169.99-33.8 171.09-33.8L171.09-33.8Q172.24-33.8 173.56-33.83 174.89-33.85 176.14-33.88 177.39-33.9 178.39-33.95L178.39-33.95Q178.39-33.1 178.34-32.35 178.29-31.6 178.04-30.9L178.04-30.9Q176.74-30.8 175.99-30.38 175.24-29.95 174.96-28.93 174.69-27.9 174.69-25.95L174.69-25.95 174.69-7.9Q174.69-5.95 174.99-4.88 175.29-3.8 176.01-3.4 176.74-3 178.09-2.9L178.09-2.9Q178.24-2.4 178.31-1.55 178.39-0.7 178.39 0.15L178.39 0.15Q177.09 0.05 175.24 0.03 173.39 0 171.34 0L171.34 0Q169.29 0 167.19 0.03 165.09 0.05 163.54 0.15ZM143.69 0.15L143.69 0.15Q143.69-0.65 143.81-1.5 143.94-2.35 144.09-2.9L144.09-2.9Q145.44-3 146.16-3.4 146.89-3.8 147.14-4.88 147.39-5.95 147.39-7.9L147.39-7.9 147.39-25.95Q147.39-27.9 147.14-28.93 146.89-29.95 146.16-30.35 145.44-30.75 144.09-30.9L144.09-30.9Q143.89-31.45 143.79-32.3 143.69-33.15 143.69-33.95L143.69-33.95Q144.59-33.9 145.91-33.88 147.24-33.85 148.69-33.83 150.14-33.8 151.29-33.8L151.29-33.8Q152.44-33.8 153.74-33.83 155.04-33.85 156.31-33.88 157.59-33.9 158.59-33.95L158.59-33.95Q158.59-33.1 158.54-32.35 158.49-31.6 158.24-30.9L158.24-30.9Q156.89-30.8 156.16-30.38 155.44-29.95 155.16-28.93 154.89-27.9 154.89-25.95L154.89-25.95 154.89-7.9Q154.89-5.95 155.16-4.88 155.44-3.8 156.19-3.4 156.94-3 158.24-2.9L158.24-2.9Q158.44-2.4 158.51-1.55 158.59-0.7 158.59 0.15L158.59 0.15Q157.29 0.05 155.44 0.03 153.59 0 151.54 0L151.54 0Q149.49 0 147.36 0.03 145.24 0.05 143.69 0.15ZM154.64-15.45L154.64-15.45 154.64-18.95 167.49-18.95 167.49-15.85Q166.19-15.85 164.49-15.85 162.79-15.85 160.99-15.8 159.19-15.75 157.54-15.68 155.89-15.6 154.64-15.45ZM192.04 0.3L192.04 0.3Q188.49 0.3 186.49-1.73 184.49-3.75 184.49-8.9L184.49-8.9 184.49-14.8Q184.49-16.95 183.99-17.82 183.49-18.7 181.29-18.85L181.29-18.85Q181.29-19.6 181.41-20.33 181.54-21.05 181.84-21.7L181.84-21.7Q184.49-21.7 186.76-22.23 189.04-22.75 190.19-23.35L190.19-23.35Q190.89-23.1 191.26-22.48 191.64-21.85 191.64-20.65L191.64-20.65 191.64-10.1Q191.64-6.75 192.36-5.3 193.09-3.85 194.74-3.85L194.74-3.85Q196.74-3.85 198.19-5.83 199.64-7.8 199.64-11.85L199.64-11.85 199.64-15.05Q199.64-17.2 199.01-18.07 198.39-18.95 196.04-19.1L196.04-19.1Q196.04-19.85 196.11-20.58 196.19-21.3 196.54-21.95L196.54-21.95Q199.39-21.95 201.79-22.38 204.19-22.8 205.34-23.35L205.34-23.35Q206.04-23.1 206.41-22.48 206.79-21.85 206.79-20.65L206.79-20.65 206.79-6.7 200.59-4.9Q200.29-4 199.81-3.3 199.34-2.6 198.79-2.05L198.79-2.05Q197.64-1 195.99-0.35 194.34 0.3 192.04 0.3ZM201.84 0.45L201.84 0.45Q201.04 0.1 200.66-0.5 200.29-1.1 200.29-2.4L200.29-2.4Q200.29-3.2 200.44-4.28 200.59-5.35 200.89-6.5L200.89-6.5 206.79-8.35Q206.79-6.8 206.99-5.93 207.19-5.05 207.81-4.7 208.44-4.35 209.74-4.35L209.74-4.35Q209.84-3.55 209.74-2.73 209.64-1.9 209.29-1.2L209.29-1.2Q207.49-1.15 205.49-0.73 203.49-0.3 201.84 0.45ZM221.98-3.35L221.43-4.85Q222.28-3.75 223.28-3.13 224.28-2.5 225.73-2.5L225.73-2.5Q226.68-2.5 227.73-2.88 228.78-3.25 229.76-4.25 230.73-5.25 231.33-7.05 231.93-8.85 231.93-11.7L231.93-11.7Q231.93-14.05 231.31-15.75 230.68-17.45 229.63-18.38 228.58-19.3 227.23-19.3L227.23-19.3Q225.93-19.3 224.73-18.48 223.53-17.65 222.76-15.78 221.98-13.9 221.98-10.75L221.98-10.75 221.98-3.35ZM225.68 0.45L225.68 0.45Q223.13 0.45 220.78 0 218.43-0.45 216.61-1.28 214.78-2.1 213.73-3.1L213.73-3.1Q214.33-3.85 214.61-5.1 214.88-6.35 214.88-8.65L214.88-8.65 214.88-27.8Q214.88-29 214.61-29.75 214.33-30.5 213.53-30.88 212.73-31.25 211.13-31.35L211.13-31.35Q211.13-32.1 211.26-32.83 211.38-33.55 211.68-34.2L211.68-34.2Q213.38-34.2 215.16-34.45 216.93-34.7 218.38-35.08 219.83-35.45 220.53-35.85L220.53-35.85Q221.18-35.6 221.58-34.98 221.98-34.35 221.98-33.2L221.98-33.2 221.98-22.45Q221.98-21.15 221.88-20.35 221.78-19.55 221.58-18.65L221.58-18.65 221.13-14.95 220.03-15.9Q220.83-17.85 221.53-18.93 222.23-20 222.83-20.55L222.83-20.55Q223.38-21.2 224.36-21.83 225.33-22.45 226.66-22.9 227.98-23.35 229.48-23.35L229.48-23.35Q232.38-23.35 234.58-22.25 236.78-21.15 238.03-18.8 239.28-16.45 239.28-12.75L239.28-12.75Q239.28-8.95 237.58-5.95 235.88-2.95 232.83-1.25 229.78 0.45 225.68 0.45Z" fill="#3081d0" data-fill-palette-color="secondary"></path></g></svg></g></svg></g><g transform="matrix(1,0,0,1,0,74.4256988742965)"><svg viewBox="0 0 395.52 21.78298214199293" height="21.78298214199293" width="395.52"><g transform="matrix(1,0,0,1,0,0)"><svg width="395.52" viewBox="3.5 -43.65 1033.07 56.9" height="21.78298214199293" data-palette-color="#3081d0"><path d="M38.1-40.2L38.1-27.7 36.6-27.2 29.95-37.05 23.85-37.05 23.85-3.8 29.1-2 28.1 0 12.9 0 12.9-1.55 17.6-5.25 17.6-37.05 11.65-37.05 5-27.2 3.5-27.7 3.5-40.2 6.2-39.3 35.4-39.3 38.1-40.2ZM54.65-27.05Q57.95-27.05 60.57-25.33 63.2-23.6 64.67-20.65 66.15-17.7 66.15-14.15L66.15-14.15Q66.15-10.3 63.8-6.93 61.45-3.55 57.92-1.53 54.4 0.5 51.1 0.5L51.1 0.5Q47.8 0.5 45.17-1.23 42.55-2.95 41.07-5.9 39.6-8.85 39.6-12.4L39.6-12.4Q39.6-16.25 41.95-19.63 44.3-23 47.82-25.03 51.35-27.05 54.65-27.05L54.65-27.05ZM51.75-22.85Q46.1-22.85 46.1-14.8L46.1-14.8Q46.1-10.05 48.15-6.88 50.2-3.7 54-3.7L54-3.7Q59.65-3.7 59.65-11.8L59.65-11.8Q59.65-16.5 57.6-19.68 55.55-22.85 51.75-22.85L51.75-22.85ZM100.2-23.1L94.3-23.1Q95.7-21.1 95.7-18.6L95.7-18.6Q95.7-16.4 94.45-14.28 93.2-12.15 91.1-10.55 89-8.95 86.5-8.15L86.5-8.15Q85.15-6.8 85.15-5.3L85.15-5.3Q85.15-4.45 86.47-3.73 87.8-3 90.4-2L90.4-2Q93.95-0.6 95.87 0.58 97.8 1.75 97.8 3.45L97.8 3.45Q97.8 4.95 95.87 7.3 93.95 9.65 91.1 11.4 88.25 13.15 85.6 13.15L85.6 13.15Q82.8 13.15 78.97 12.2 75.15 11.25 72.6 10.3L72.6 10.3 72.6 2.6 74.5 2.6Q77.3 6.05 80.2 7.85 83.1 9.65 86.75 9.65L86.75 9.65Q88.1 9.65 89.22 9.1 90.35 8.55 90.97 7.73 91.6 6.9 91.6 6.15L91.6 6.15Q91.6 4.8 90.05 3.83 88.5 2.85 85.2 1.45L85.2 1.45Q82.05 0.15 80.52-0.8 79-1.75 79-3L79-3Q79-4.2 80.6-5.45 82.2-6.7 84.4-7.65L84.4-7.65Q83.6-7.5 82.75-7.5L82.75-7.5Q80.1-7.5 77.9-8.68 75.7-9.85 74.42-11.8 73.15-13.75 73.15-16.05L73.15-16.05Q73.15-18.8 75.05-21.35 76.95-23.9 79.97-25.48 83-27.05 86.15-27.05L86.15-27.05Q89.65-27.05 92.3-25.05L92.3-25.05 100.15-25.05 100.2-23.1ZM85.65-11.8Q87.9-11.8 89.07-12.93 90.25-14.05 90.25-16.25L90.25-16.25Q90.25-19.25 88.32-21.1 86.4-22.95 83.25-22.95L83.25-22.95Q81.05-22.95 79.87-21.88 78.7-20.8 78.7-18.6L78.7-18.6Q78.7-15.55 80.62-13.68 82.55-11.8 85.65-11.8L85.65-11.8ZM129.29-6.9L120.44 0.1Q118.44 0.5 115.64 0.5L115.64 0.5Q112.34 0.5 109.72-1.23 107.09-2.95 105.62-5.9 104.14-8.85 104.14-12.4L104.14-12.4Q104.14-16.25 106.49-19.63 108.84-23 112.37-25.03 115.89-27.05 119.19-27.05L119.19-27.05Q123.94-27.05 126.57-23.3 129.19-19.55 129.19-13.4L129.19-13.4 110.69-13.4Q110.99-9.15 113.02-6.45 115.04-3.75 118.54-3.75L118.54-3.75Q121.79-3.75 127.79-8.8L127.79-8.8 129.29-6.9ZM116.29-22.85Q110.89-22.85 110.64-15.45L110.64-15.45 122.34-15.45Q121.89-18.15 121.42-19.58 120.94-21 119.77-21.93 118.59-22.85 116.29-22.85L116.29-22.85ZM154.84-3.9L149.79 0.1Q148.64 0.5 146.99 0.5L146.99 0.5Q142.84 0.5 140.92-1.68 138.99-3.85 138.99-8.4L138.99-8.4 138.99-23 133.59-23 133.59-25.05 143.09-36.1 144.99-36.1 144.99-25.05 153.99-25.05 153.99-23 144.99-23 144.99-7.8Q144.99-3.75 148.89-3.75L148.89-3.75Q149.94-3.75 150.92-4.2 151.89-4.65 153.34-5.8L153.34-5.8 154.84-3.9ZM189.29-2L188.29 0 178.79 0 178.79-16.85Q178.79-19.6 177.94-20.7 177.09-21.8 174.89-21.8L174.89-21.8Q173.24-21.8 171.61-21.2 169.99-20.6 167.79-18.9L167.79-18.9 167.79-3.75 172.29-2 171.29 0 157.34 0 157.34-1.55 161.79-5.05 161.79-35.8 157.34-38.9 157.34-40.45 165.89-43.65 167.79-43.65 167.79-21.25 174.64-26.65Q175.69-27.05 177.39-27.05L177.39-27.05Q180.79-27.05 182.79-24.98 184.79-22.9 184.79-19.35L184.79-19.35 184.79-3.75 189.29-2ZM219.19-6.9L210.34 0.1Q208.34 0.5 205.54 0.5L205.54 0.5Q202.24 0.5 199.61-1.23 196.99-2.95 195.51-5.9 194.04-8.85 194.04-12.4L194.04-12.4Q194.04-16.25 196.39-19.63 198.74-23 202.26-25.03 205.79-27.05 209.09-27.05L209.09-27.05Q213.84-27.05 216.46-23.3 219.09-19.55 219.09-13.4L219.09-13.4 200.59-13.4Q200.89-9.15 202.91-6.45 204.94-3.75 208.44-3.75L208.44-3.75Q211.69-3.75 217.69-8.8L217.69-8.8 219.19-6.9ZM206.19-22.85Q200.79-22.85 200.54-15.45L200.54-15.45 212.24-15.45Q211.79-18.15 211.31-19.58 210.84-21 209.66-21.93 208.49-22.85 206.19-22.85L206.19-22.85ZM243.48-27Q245.13-27 246.38-26.1 247.63-25.2 248.33-23.6L248.33-23.6 245.03-19.45 243.13-19.45Q242.93-20.7 242.41-21.23 241.88-21.75 240.98-21.75L240.98-21.75Q239.88-21.75 238.66-21.18 237.43-20.6 235.88-19L235.88-19 235.88-4.1 242.88-1.95 241.88 0.05 225.43 0.05 225.43-1.5 229.88-5 229.88-19.15 225.43-21.75 225.43-23.3 233.98-27.5 235.53-21.35 240.73-26.65Q241.78-27.05 243.48-27.05L243.48-27.05 243.48-27ZM322.33-37.75L317.98-34.35 305.98-1.6 300.78 0.95 292.83-22.6 285.38-1.6 280.18 0.95 267.33-34.45 262.58-37.3 263.58-39.3 277.28-39.3 277.28-37.75 273.63-35 284.03-5.7 291.48-26.5 288.78-34.5 284.18-37.3 285.18-39.3 299.88-39.3 299.88-37.75 295.43-34.3 304.73-5.8 315.03-34.3 306.13-37.3 307.13-39.3 322.33-39.3 322.33-37.75ZM346.98-6.9L338.13 0.1Q336.13 0.5 333.33 0.5L333.33 0.5Q330.03 0.5 327.4-1.23 324.78-2.95 323.3-5.9 321.83-8.85 321.83-12.4L321.83-12.4Q321.83-16.25 324.18-19.63 326.53-23 330.05-25.03 333.58-27.05 336.88-27.05L336.88-27.05Q341.63-27.05 344.25-23.3 346.88-19.55 346.88-13.4L346.88-13.4 328.38-13.4Q328.68-9.15 330.7-6.45 332.73-3.75 336.23-3.75L336.23-3.75Q339.48-3.75 345.48-8.8L345.48-8.8 346.98-6.9ZM333.98-22.85Q328.58-22.85 328.33-15.45L328.33-15.45 340.03-15.45Q339.58-18.15 339.1-19.58 338.63-21 337.45-21.93 336.28-22.85 333.98-22.85L333.98-22.85ZM389.42-40.3Q392.07-40.3 395.55-39.55 399.02-38.8 400.62-37.95L400.62-37.95 400.62-28.25 398.72-28.25Q394.12-36.1 386.52-36.1L386.52-36.1Q383.22-36.1 380.5-34.18 377.77-32.25 376.22-28.83 374.67-25.4 374.67-21.15L374.67-21.15Q374.67-16.25 376.19-12.2 377.72-8.15 380.85-5.7 383.97-3.25 388.57-3.25L388.57-3.25Q392.82-3.25 400.77-9.65L400.77-9.65 402.27-7.25 393.07-0.1Q391.22 0.55 389.5 0.78 387.77 1 385.77 1L385.77 1Q380.52 1 376.47-1.55 372.42-4.1 370.17-8.58 367.92-13.05 367.92-18.75L367.92-18.75Q367.92-24.6 371.32-29.58 374.72-34.55 379.77-37.43 384.82-40.3 389.42-40.3L389.42-40.3ZM435.22-2L434.22 0 424.72 0 424.72-4.35 419.07 0.1Q418.07 0.5 416.57 0.5L416.57 0.5Q412.27 0.5 410.34-1.65 408.42-3.8 408.42-6.8L408.42-6.8Q408.42-8.6 409.72-10.35 411.02-12.1 413.42-13.65L413.42-13.65 424.72-13.65 424.72-16.85Q424.72-20.1 422.99-21.45 421.27-22.8 418.27-22.8L418.27-22.8Q415.17-22.8 410.67-19.05L410.67-19.05 409.17-20.95 416.37-26.65Q418.37-27.05 421.17-27.05L421.17-27.05Q425.72-27.05 428.22-24.83 430.72-22.6 430.72-18.35L430.72-18.35 430.72-3.75 435.22-2ZM418.17-3.75Q421.22-3.75 424.72-6.55L424.72-6.55 424.72-11.6 415.87-11.6Q415.22-10.8 414.94-10 414.67-9.2 414.67-8.25L414.67-8.25Q414.67-6.4 415.62-5.08 416.57-3.75 418.17-3.75L418.17-3.75ZM457.27-27Q458.92-27 460.17-26.1 461.42-25.2 462.12-23.6L462.12-23.6 458.82-19.45 456.92-19.45Q456.72-20.7 456.19-21.23 455.67-21.75 454.77-21.75L454.77-21.75Q453.67-21.75 452.44-21.18 451.22-20.6 449.67-19L449.67-19 449.67-4.1 456.67-1.95 455.67 0.05 439.22 0.05 439.22-1.5 443.67-5 443.67-19.15 439.22-21.75 439.22-23.3 447.77-27.5 449.32-21.35 454.52-26.65Q455.57-27.05 457.27-27.05L457.27-27.05 457.27-27ZM491.06-6.9L482.21 0.1Q480.21 0.5 477.41 0.5L477.41 0.5Q474.11 0.5 471.49-1.23 468.86-2.95 467.39-5.9 465.91-8.85 465.91-12.4L465.91-12.4Q465.91-16.25 468.26-19.63 470.61-23 474.14-25.03 477.66-27.05 480.96-27.05L480.96-27.05Q485.71-27.05 488.34-23.3 490.96-19.55 490.96-13.4L490.96-13.4 472.46-13.4Q472.76-9.15 474.79-6.45 476.81-3.75 480.31-3.75L480.31-3.75Q483.56-3.75 489.56-8.8L489.56-8.8 491.06-6.9ZM478.06-22.85Q472.66-22.85 472.41-15.45L472.41-15.45 484.11-15.45Q483.66-18.15 483.19-19.58 482.71-21 481.54-21.93 480.36-22.85 478.06-22.85L478.06-22.85ZM505.56 1.05L495.96 13.25 494.06 11.75Q496.61 8.7 497.71 6.48 498.81 4.25 499.01 1.5L499.01 1.5 495.11-0.8 495.11-2.35 503.66-6.55 505.56 1.05ZM562.11-40.2L562.11-27.7 560.61-27.2 553.96-37.05 547.86-37.05 547.86-3.8 553.11-2 552.11 0 536.9 0 536.9-1.55 541.61-5.25 541.61-37.05 535.65-37.05 529-27.2 527.5-27.7 527.5-40.2 530.21-39.3 559.4-39.3 562.11-40.2ZM578.65-27.05Q581.95-27.05 584.58-25.33 587.2-23.6 588.68-20.65 590.15-17.7 590.15-14.15L590.15-14.15Q590.15-10.3 587.8-6.93 585.45-3.55 581.93-1.53 578.4 0.5 575.1 0.5L575.1 0.5Q571.8 0.5 569.18-1.23 566.55-2.95 565.08-5.9 563.6-8.85 563.6-12.4L563.6-12.4Q563.6-16.25 565.95-19.63 568.3-23 571.83-25.03 575.35-27.05 578.65-27.05L578.65-27.05ZM575.75-22.85Q570.1-22.85 570.1-14.8L570.1-14.8Q570.1-10.05 572.15-6.88 574.2-3.7 578-3.7L578-3.7Q583.65-3.7 583.65-11.8L583.65-11.8Q583.65-16.5 581.6-19.68 579.55-22.85 575.75-22.85L575.75-22.85ZM624.2-23.1L618.3-23.1Q619.7-21.1 619.7-18.6L619.7-18.6Q619.7-16.4 618.45-14.28 617.2-12.15 615.1-10.55 613-8.95 610.5-8.15L610.5-8.15Q609.15-6.8 609.15-5.3L609.15-5.3Q609.15-4.45 610.47-3.73 611.8-3 614.4-2L614.4-2Q617.95-0.6 619.87 0.58 621.8 1.75 621.8 3.45L621.8 3.45Q621.8 4.95 619.87 7.3 617.95 9.65 615.1 11.4 612.25 13.15 609.6 13.15L609.6 13.15Q606.8 13.15 602.97 12.2 599.15 11.25 596.6 10.3L596.6 10.3 596.6 2.6 598.5 2.6Q601.3 6.05 604.2 7.85 607.1 9.65 610.75 9.65L610.75 9.65Q612.1 9.65 613.22 9.1 614.35 8.55 614.97 7.73 615.6 6.9 615.6 6.15L615.6 6.15Q615.6 4.8 614.05 3.83 612.5 2.85 609.2 1.45L609.2 1.45Q606.05 0.15 604.52-0.8 603-1.75 603-3L603-3Q603-4.2 604.6-5.45 606.2-6.7 608.4-7.65L608.4-7.65Q607.6-7.5 606.75-7.5L606.75-7.5Q604.1-7.5 601.9-8.68 599.7-9.85 598.42-11.8 597.15-13.75 597.15-16.05L597.15-16.05Q597.15-18.8 599.05-21.35 600.95-23.9 603.97-25.48 607-27.05 610.15-27.05L610.15-27.05Q613.65-27.05 616.3-25.05L616.3-25.05 624.15-25.05 624.2-23.1ZM609.65-11.8Q611.9-11.8 613.07-12.93 614.25-14.05 614.25-16.25L614.25-16.25Q614.25-19.25 612.32-21.1 610.4-22.95 607.25-22.95L607.25-22.95Q605.05-22.95 603.87-21.88 602.7-20.8 602.7-18.6L602.7-18.6Q602.7-15.55 604.62-13.68 606.55-11.8 609.65-11.8L609.65-11.8ZM653.3-6.9L644.45 0.1Q642.45 0.5 639.65 0.5L639.65 0.5Q636.35 0.5 633.72-1.23 631.1-2.95 629.62-5.9 628.15-8.85 628.15-12.4L628.15-12.4Q628.15-16.25 630.5-19.63 632.85-23 636.37-25.03 639.9-27.05 643.2-27.05L643.2-27.05Q647.95-27.05 650.57-23.3 653.2-19.55 653.2-13.4L653.2-13.4 634.7-13.4Q635-9.15 637.02-6.45 639.05-3.75 642.55-3.75L642.55-3.75Q645.8-3.75 651.8-8.8L651.8-8.8 653.3-6.9ZM640.3-22.85Q634.9-22.85 634.65-15.45L634.65-15.45 646.35-15.45Q645.9-18.15 645.42-19.58 644.95-21 643.77-21.93 642.6-22.85 640.3-22.85L640.3-22.85ZM678.84-3.9L673.79 0.1Q672.64 0.5 670.99 0.5L670.99 0.5Q666.84 0.5 664.92-1.68 662.99-3.85 662.99-8.4L662.99-8.4 662.99-23 657.59-23 657.59-25.05 667.09-36.1 668.99-36.1 668.99-25.05 677.99-25.05 677.99-23 668.99-23 668.99-7.8Q668.99-3.75 672.89-3.75L672.89-3.75Q673.94-3.75 674.92-4.2 675.89-4.65 677.34-5.8L677.34-5.8 678.84-3.9ZM713.29-2L712.29 0 702.79 0 702.79-16.85Q702.79-19.6 701.94-20.7 701.09-21.8 698.89-21.8L698.89-21.8Q697.24-21.8 695.62-21.2 693.99-20.6 691.79-18.9L691.79-18.9 691.79-3.75 696.29-2 695.29 0 681.34 0 681.34-1.55 685.79-5.05 685.79-35.8 681.34-38.9 681.34-40.45 689.89-43.65 691.79-43.65 691.79-21.25 698.64-26.65Q699.69-27.05 701.39-27.05L701.39-27.05Q704.79-27.05 706.79-24.98 708.79-22.9 708.79-19.35L708.79-19.35 708.79-3.75 713.29-2ZM743.19-6.9L734.34 0.1Q732.34 0.5 729.54 0.5L729.54 0.5Q726.24 0.5 723.61-1.23 720.99-2.95 719.51-5.9 718.04-8.85 718.04-12.4L718.04-12.4Q718.04-16.25 720.39-19.63 722.74-23 726.26-25.03 729.79-27.05 733.09-27.05L733.09-27.05Q737.84-27.05 740.46-23.3 743.09-19.55 743.09-13.4L743.09-13.4 724.59-13.4Q724.89-9.15 726.91-6.45 728.94-3.75 732.44-3.75L732.44-3.75Q735.69-3.75 741.69-8.8L741.69-8.8 743.19-6.9ZM730.19-22.85Q724.79-22.85 724.54-15.45L724.54-15.45 736.24-15.45Q735.79-18.15 735.31-19.58 734.84-21 733.66-21.93 732.49-22.85 730.19-22.85L730.19-22.85ZM767.49-27Q769.14-27 770.39-26.1 771.64-25.2 772.34-23.6L772.34-23.6 769.04-19.45 767.14-19.45Q766.94-20.7 766.41-21.23 765.89-21.75 764.99-21.75L764.99-21.75Q763.89-21.75 762.66-21.18 761.44-20.6 759.89-19L759.89-19 759.89-4.1 766.89-1.95 765.89 0.05 749.44 0.05 749.44-1.5 753.89-5 753.89-19.15 749.44-21.75 749.44-23.3 757.99-27.5 759.54-21.35 764.74-26.65Q765.79-27.05 767.49-27.05L767.49-27.05 767.49-27ZM846.33-37.75L841.98-34.35 829.98-1.6 824.78 0.95 816.83-22.6 809.38-1.6 804.18 0.95 791.33-34.45 786.58-37.3 787.58-39.3 801.28-39.3 801.28-37.75 797.63-35 808.03-5.7 815.48-26.5 812.78-34.5 808.18-37.3 809.18-39.3 823.88-39.3 823.88-37.75 819.43-34.3 828.73-5.8 839.03-34.3 830.13-37.3 831.13-39.3 846.33-39.3 846.33-37.75ZM870.98-6.9L862.13 0.1Q860.13 0.5 857.33 0.5L857.33 0.5Q854.03 0.5 851.4-1.23 848.78-2.95 847.3-5.9 845.83-8.85 845.83-12.4L845.83-12.4Q845.83-16.25 848.18-19.63 850.53-23 854.05-25.03 857.58-27.05 860.88-27.05L860.88-27.05Q865.63-27.05 868.25-23.3 870.88-19.55 870.88-13.4L870.88-13.4 852.38-13.4Q852.68-9.15 854.7-6.45 856.73-3.75 860.23-3.75L860.23-3.75Q863.48-3.75 869.48-8.8L869.48-8.8 870.98-6.9ZM857.98-22.85Q852.58-22.85 852.33-15.45L852.33-15.45 864.03-15.45Q863.58-18.15 863.1-19.58 862.63-21 861.45-21.93 860.28-22.85 857.98-22.85L857.98-22.85ZM926.92-15L926.92-7.9 928.27-5.75 919.07-0.1Q916.97 0.55 915 0.78 913.02 1 910.77 1L910.77 1Q905.22 1 900.95-1.55 896.67-4.1 894.3-8.58 891.92-13.05 891.92-18.75L891.92-18.75Q891.92-24.6 895.47-29.58 899.02-34.55 904.32-37.43 909.62-40.3 914.42-40.3L914.42-40.3Q917.27-40.3 921.07-39.55 924.87-38.8 926.62-37.95L926.62-37.95 926.62-28.25 924.72-28.25Q919.72-36.1 911.52-36.1L911.52-36.1Q907.92-36.1 904.97-34.18 902.02-32.25 900.35-28.83 898.67-25.4 898.67-21.15L898.67-21.15Q898.67-16.25 900.3-12.2 901.92-8.15 905.27-5.7 908.62-3.25 913.57-3.25L913.57-3.25Q915.77-3.25 917.22-3.4 918.67-3.55 920.67-4.35L920.67-4.35 920.67-16.15 912.97-18.3 913.97-20.3 931.67-20.3 931.67-18.75 926.92-15ZM954.72-27Q956.37-27 957.62-26.1 958.87-25.2 959.57-23.6L959.57-23.6 956.27-19.45 954.37-19.45Q954.17-20.7 953.65-21.23 953.12-21.75 952.22-21.75L952.22-21.75Q951.12-21.75 949.9-21.18 948.67-20.6 947.12-19L947.12-19 947.12-4.1 954.12-1.95 953.12 0.05 936.67 0.05 936.67-1.5 941.12-5 941.12-19.15 936.67-21.75 936.67-23.3 945.22-27.5 946.77-21.35 951.97-26.65Q953.02-27.05 954.72-27.05L954.72-27.05 954.72-27ZM978.42-27.05Q981.72-27.05 984.34-25.33 986.97-23.6 988.44-20.65 989.92-17.7 989.92-14.15L989.92-14.15Q989.92-10.3 987.57-6.93 985.22-3.55 981.69-1.53 978.17 0.5 974.87 0.5L974.87 0.5Q971.57 0.5 968.94-1.23 966.32-2.95 964.84-5.9 963.37-8.85 963.37-12.4L963.37-12.4Q963.37-16.25 965.72-19.63 968.07-23 971.59-25.03 975.12-27.05 978.42-27.05L978.42-27.05ZM975.52-22.85Q969.87-22.85 969.87-14.8L969.87-14.8Q969.87-10.05 971.92-6.88 973.97-3.7 977.77-3.7L977.77-3.7Q983.42-3.7 983.42-11.8L983.42-11.8Q983.42-16.5 981.37-19.68 979.32-22.85 975.52-22.85L975.52-22.85ZM1036.57-26.55L1036.57-25 1025.42 0 1021.62 0 1016.42-12.75 1009.97 0 1006.17 0 998.37-19.05 993.72-21.75 993.72-23.3 1002.27-27.5 1004.17-19.95 1010.27-5.1 1015.17-15.65 1013.77-19.05 1009.12-21.75 1009.12-23.3 1017.67-27.5 1019.57-19.95 1025.52-5.5 1031.52-19.5 1024.57-24.55 1025.57-26.55 1036.57-26.55Z" opacity="1" transform="matrix(1,0,0,1,0,0)" fill="#3081d0" class="slogan-text-1" data-fill-palette-color="secondary" id="text-1"></path></svg></g></svg></g></svg></g></svg></g><g><svg viewBox="0 0 121.86083922830626 121.86083922830626" height="121.86083922830626" width="121.86083922830626"><g><svg></svg></g><g id="icon-0"><svg viewBox="0 0 121.86083922830626 121.86083922830626" height="121.86083922830626" width="121.86083922830626"><g><path d="M0 60.93c0-33.651 27.279-60.93 60.93-60.93 33.651 0 60.93 27.279 60.931 60.93 0 33.651-27.279 60.93-60.931 60.931-33.651 0-60.93-27.279-60.93-60.931zM60.93 116.431c30.652 0 55.501-24.848 55.501-55.501 0-30.652-24.848-55.501-55.501-55.5-30.652 0-55.501 24.848-55.5 55.5 0 30.652 24.848 55.501 55.5 55.501z" data-fill-palette-color="accent" fill="#527853" stroke="transparent"></path></g><g transform="matrix(1,0,0,1,26.494390912056573,30.32968320826164)"><svg viewBox="0 0 68.87205740419311 61.201472811782985" height="61.201472811782985" width="68.87205740419311"><g><svg xmlns="http://www.w3.org/2000/svg" data-name="Layer 1" viewBox="16.24 20 67.52 60" x="0" y="0" height="61.201472811782985" width="68.87205740419311" class="icon-cg-0" data-fill-palette-color="accent" id="cg-0"><path d="M31.51 51.08L28.28 46C23.92 48.81 23 51.9 23 54c0 8.53 13.58 13 27 13s27-4.47 27-13c0-2.1-0.92-5.19-5.28-8l-3.23 5.06c1.57 1 2.51 2.1 2.51 2.92 0 2.38-7.41 7-21 7s-21-4.62-21-7C29 53.17 29.94 52.08 31.51 51.08Z" fill="#527853" data-fill-palette-color="accent"></path><path d="M50 74c-11.86 0-22.88-3-30.24-8.36L16.24 70.5C24.61 76.54 36.91 80 50 80s25.39-3.46 33.76-9.5l-3.51-4.87C72.88 71 61.86 74 50 74Z" fill="#527853" data-fill-palette-color="accent"></path><path d="M64 40c0-10-14-20-14-20S36 30 36 40a14 14 0 0 0 28 0ZM42 40c0-3.84 4.27-8.83 8-12.24 3.73 3.42 8 8.4 8 12.24a8 8 0 0 1-16 0Z" fill="#527853" data-fill-palette-color="accent"></path></svg></g></svg></g></svg></g></svg></g></svg></g><defs></defs></svg><rect width="395.5199999999999" height="88.30623276269709" fill="none" stroke="none" visibility="hidden"></rect></g></svg></g></svg>